<svg id="Layer_1" data-name="Layer 1" xmlns="http://www.w3.org/2000/svg" width="19" height="19" viewBox="0 0 19 19"><defs><style>.cls-1{fill:#f9f9f9;}.cls-2{fill:#424242;}</style></defs><title>Artboard 1</title><path class="cls-1" d="M8.5,18a.5.5,0,0,1-.5-.5V11H1.5a.5.5,0,0,1-.5-.5v-2A.5.5,0,0,1,1.5,8H8V1.5A.5.5,0,0,1,8.5,1h2a.5.5,0,0,1,.5.5V8h6.5a.5.5,0,0,1,.5.5v2a.5.5,0,0,1-.5.5H11v6.5a.5.5,0,0,1-.5.5Z"/><path class="cls-2" d="M10.5,1.5v7h7v2h-7v7h-2v-7h-7v-2h7v-7h2m0-1h-2a1,1,0,0,0-1,1v6h-6a1,1,0,0,0-1,1v2a1,1,0,0,0,1,1h6v6a1,1,0,0,0,1,1h2a1,1,0,0,0,1-1v-6h6a1,1,0,0,0,1-1v-2a1,1,0,0,0-1-1h-6v-6a1,1,0,0,0-1-1Z"/></svg>