<svg id="Layer_1" data-name="Layer 1" xmlns="http://www.w3.org/2000/svg" width="19" height="19" viewBox="0 0 19 19"><defs><style>.cls-1{fill:#f9f9f9;}.cls-2{fill:#424242;}</style></defs><title>Artboard 1</title><path class="cls-1" d="M9.5,18a.47.47,0,0,1-.35-.15l-2-2A.47.47,0,0,1,7,15.31.5.5,0,0,1,7.5,15H8V11.05H4v.45a.5.5,0,0,1-.31.46.43.43,0,0,1-.19,0,.47.47,0,0,1-.35-.15l-2-2a.48.48,0,0,1,0-.7l2-2A.47.47,0,0,1,3.5,7a.43.43,0,0,1,.19,0A.5.5,0,0,1,4,7.5v.55H8V4H7.5A.5.5,0,0,1,7,3.69a.47.47,0,0,1,.11-.54l2-2a.48.48,0,0,1,.7,0l2,2a.47.47,0,0,1,.11.54A.5.5,0,0,1,11.5,4H11V8.05h4V7.5A.5.5,0,0,1,15.31,7a.43.43,0,0,1,.19,0,.47.47,0,0,1,.35.15l2,2a.48.48,0,0,1,0,.7l-2,2a.47.47,0,0,1-.35.15.43.43,0,0,1-.19,0A.5.5,0,0,1,15,11.5v-.45H11V15h.5a.5.5,0,0,1,.46.31.47.47,0,0,1-.11.54l-2,2A.47.47,0,0,1,9.5,18Z"/><path class="cls-2" d="M9.5,1.5l2,2h-1V8.55h5V7.5l2,2-2,2v-.95h-5V15.5h1l-2,2-2-2h1V10.55h-5v.95l-2-2,2-2V8.55h5V3.5h-1l2-2m0-1a1,1,0,0,0-.71.29l-2,2a1,1,0,0,0-.21,1.09,1,1,0,0,0,.92.62V7.55h-3v0a1,1,0,0,0-.62-.92A.84.84,0,0,0,3.5,6.5a1,1,0,0,0-.71.29l-2,2a1,1,0,0,0,0,1.42l2,2a1,1,0,0,0,.71.29.84.84,0,0,0,.38-.08,1,1,0,0,0,.62-.87h3V14.5a1,1,0,0,0-.92.62,1,1,0,0,0,.21,1.09l2,2a1,1,0,0,0,1.42,0l2-2a1,1,0,0,0,.21-1.09,1,1,0,0,0-.92-.62V11.55h3a1,1,0,0,0,.62.87.84.84,0,0,0,.38.08,1,1,0,0,0,.71-.29l2-2a1,1,0,0,0,0-1.42l-2-2a1,1,0,0,0-.71-.29.84.84,0,0,0-.38.08,1,1,0,0,0-.62.92v0h-3v-3a1,1,0,0,0,.92-.62,1,1,0,0,0-.21-1.09l-2-2A1,1,0,0,0,9.5.5Z"/></svg>