<svg id="Layer_1" data-name="Layer 1" xmlns="http://www.w3.org/2000/svg" width="19" height="19" viewBox="0 0 19 19"><defs><style>.cls-1{fill:#f9f9f9;}.cls-2{fill:#424242;}</style></defs><title>Artboard 1</title><path class="cls-1" d="M8.5,18a.5.5,0,0,1-.5-.5V11.05H4v.45a.5.5,0,0,1-.31.46.43.43,0,0,1-.19,0,.47.47,0,0,1-.35-.15l-2-2a.48.48,0,0,1,0-.7l2-2A.47.47,0,0,1,3.5,7a.43.43,0,0,1,.19,0A.5.5,0,0,1,4,7.5v.56H8V1.5A.5.5,0,0,1,8.5,1h2a.5.5,0,0,1,.5.5V8.06h4V7.5A.5.5,0,0,1,15.31,7a.43.43,0,0,1,.19,0,.47.47,0,0,1,.35.15l2,2a.48.48,0,0,1,0,.7l-2,2a.47.47,0,0,1-.35.15.43.43,0,0,1-.19,0A.5.5,0,0,1,15,11.5v-.45H11V17.5a.5.5,0,0,1-.5.5Z"/><path class="cls-2" d="M10.5,1.5V8.55h5V7.5l2,2-2,2v-.95h-5v7h-2V10.55h-5v.95l-2-2,2-2V8.55h5v-7h2m0-1h-2a1,1,0,0,0-1,1V7.55h-3v0a1,1,0,0,0-.62-.92A.84.84,0,0,0,3.5,6.5a1,1,0,0,0-.71.29l-2,2a1,1,0,0,0,0,1.42l2,2a1,1,0,0,0,.71.29.84.84,0,0,0,.38-.08,1,1,0,0,0,.62-.87h3V17.5a1,1,0,0,0,1,1h2a1,1,0,0,0,1-1V11.55h3a1,1,0,0,0,.62.87.84.84,0,0,0,.38.08,1,1,0,0,0,.71-.29l2-2a1,1,0,0,0,0-1.42l-2-2a1,1,0,0,0-.71-.29.84.84,0,0,0-.38.08,1,1,0,0,0-.62.92v0h-3v-6a1,1,0,0,0-1-1Z"/></svg>