<svg id="Layer_1" data-name="Layer 1" xmlns="http://www.w3.org/2000/svg" width="32" height="16" viewBox="0 0 32 16"><defs><style>.cls-1{fill:#999;}.cls-2{fill:#424242;}</style></defs><title>Artboard 1</title><path class="cls-1" d="M8,1a4.77,4.77,0,0,1,4.87,4.63A4.46,4.46,0,0,1,12.2,8L8,14.21,3.82,8a4.48,4.48,0,0,1-.69-2.38A4.77,4.77,0,0,1,8,1M8,0A5.75,5.75,0,0,0,2.13,5.63,5.47,5.47,0,0,0,3,8.54L8,16l5-7.46a5.47,5.47,0,0,0,.84-2.91A5.75,5.75,0,0,0,8,0Z"/><path class="cls-1" d="M8,3.5a2,2,0,1,1-2,2,2,2,0,0,1,2-2m0-1a3,3,0,1,0,3,3,3,3,0,0,0-3-3Z"/><path class="cls-1" d="M8,1a4.77,4.77,0,0,1,4.87,4.63A4.46,4.46,0,0,1,12.2,8L8,14.21,3.82,8a4.48,4.48,0,0,1-.69-2.38A4.77,4.77,0,0,1,8,1M8,0A5.75,5.75,0,0,0,2.13,5.63,5.47,5.47,0,0,0,3,8.54L8,16l5-7.46a5.47,5.47,0,0,0,.84-2.91A5.75,5.75,0,0,0,8,0Z"/><path class="cls-1" d="M8,3.5a2,2,0,1,1-2,2,2,2,0,0,1,2-2m0-1a3,3,0,1,0,3,3,3,3,0,0,0-3-3Z"/><path class="cls-2" d="M24,1a4.77,4.77,0,0,1,4.87,4.63A4.46,4.46,0,0,1,28.2,8L24,14.21,19.82,8a4.48,4.48,0,0,1-.69-2.38A4.77,4.77,0,0,1,24,1m0-1a5.75,5.75,0,0,0-5.87,5.63A5.47,5.47,0,0,0,19,8.54L24,16l5-7.46a5.47,5.47,0,0,0,.84-2.91A5.75,5.75,0,0,0,24,0Z"/><path class="cls-2" d="M24,3.5a2,2,0,1,1-2,2,2,2,0,0,1,2-2m0-1a3,3,0,1,0,3,3,3,3,0,0,0-3-3Z"/></svg>