<svg id="Layer_1" data-name="Layer 1" xmlns="http://www.w3.org/2000/svg" viewBox="0 0 72 50"><defs><style>.cls-1{fill:#414141;}.cls-2{fill:#ed1b34;}</style></defs><title>Artboard 1</title><path class="cls-1" d="M55.5,14.92v3.89h5.22s0-3.89,0-3.89H63.3s0,9.73,0,9.74H60.72V20.37s-5.22,0-5.22,0,0,4.29,0,4.29H52.92s0-9.74,0-9.74Z"/><path class="cls-1" d="M31,14.92v1.66h-4v8.08H24.48V16.58H20.53s0-1.66,0-1.66Z"/><path class="cls-1" d="M41,24.66H38.17l-.85-2.09H32.48s-.83,2.09-.84,2.09H28.77l4.55-9.74h3.17ZM34.9,16.58,33.11,21H36.7l-1.8-4.43"/><rect class="cls-1" x="65.34" y="14.92" width="2.58" height="9.74"/><path class="cls-1" d="M7.19,14.92v3.89H12.4V14.92H15s0,9.73,0,9.74H12.4V20.37s-5.21,0-5.21,0v4.29H4.61s0-9.74,0-9.74Z"/><rect class="cls-1" x="17.03" y="14.92" width="2.58" height="9.74"/><path class="cls-1" d="M41,22a6.16,6.16,0,0,1-.35-2.07,5.5,5.5,0,0,1,.67-2.84,4.36,4.36,0,0,1,2.22-1.86,8.06,8.06,0,0,1,6.11.17,3.15,3.15,0,0,1,1.85,2.25,6.17,6.17,0,0,1,.09.62H48.83a2.32,2.32,0,0,0-.14-.75,1.89,1.89,0,0,0-1.21-1.13,3.86,3.86,0,0,0-1.13-.17,3.63,3.63,0,0,0-1.28.23,2.31,2.31,0,0,0-1.41,1.42,6.41,6.41,0,0,0-.35,2.06,6.48,6.48,0,0,0,.24,1.71A2.33,2.33,0,0,0,45,23.14a4,4,0,0,0,1.39.25,3.94,3.94,0,0,0,1.19-.18,1.86,1.86,0,0,0,1.13-1,2.63,2.63,0,0,0,.21-1.05H51.6a4.74,4.74,0,0,1-.13.93,3.11,3.11,0,0,1-1.8,2.14,8.56,8.56,0,0,1-3.32.68,8.7,8.7,0,0,1-2.62-.4A4.25,4.25,0,0,1,41,22Z"/><path class="cls-1" d="M2.3,27.39,0,27.6v.34H.07c.93.11.93.11.93.78v4.82H2.39V27.38Z"/><path class="cls-1" d="M7.18,29.21a2,2,0,0,0-1.61.93v-.95l-.1,0-1.86.29v.33h.08c.59,0,.72.14.72.69v3H5.57V31.32c0-.59.56-1.35,1.15-1.35s.58.46.58,1.22v2.35H8.47v-3A1.18,1.18,0,0,0,7.18,29.21Z"/><path class="cls-1" d="M11.72,30.89c-.45-.22-.85-.42-.85-.73s.43-.4.61-.4a2.18,2.18,0,0,1,1.09.37l.19.11v-.87l-.14,0a4.6,4.6,0,0,0-1-.13c-1.1,0-1.75.47-1.75,1.25s.68,1,1.27,1.34.91.44.91.78-.28.5-.77.5a2.47,2.47,0,0,1-1.28-.44l-.12-.07v.89l.08,0a5.66,5.66,0,0,0,1.28.16c1.17,0,1.88-.49,1.88-1.3S12.35,31.2,11.72,30.89Z"/><path class="cls-1" d="M16.83,29.21a1.66,1.66,0,0,0-1.22.6v-.62l-.1,0-1.85.29v.33h.08c.58,0,.7.13.7.69v4.81H15.6V33.14a1.41,1.41,0,0,0,1.19.5c1.22,0,1.86-.79,1.86-2.28S18,29.21,16.83,29.21Zm-.33.64c.8,0,.89.86.89,1.51,0,1.1-.29,1.64-.88,1.64-.75,0-.91-.71-.91-1.3v-.36C15.6,30.89,15.69,29.85,16.5,29.85Z"/><path class="cls-1" d="M19.46,29.5v.33h.08c.58,0,.7.13.7.69v3H21.4V29.19l-.1,0Z"/><path class="cls-1" d="M20.83,28.68a.64.64,0,1,0,0-1.26.63.63,0,1,0,0,1.26Z"/><path class="cls-1" d="M26.27,30.17v-.91H26.2a3.56,3.56,0,0,0-.55,0,1.32,1.32,0,0,0-1.19.86v-.88l-.09,0-1.86.29v.33h.08c.59,0,.71.13.71.69v3h1.16V31.37a1.12,1.12,0,0,1,1.21-1.23,1.49,1.49,0,0,1,.41.08l.19.05Z"/><path class="cls-1" d="M30.87,31c0-1.16-.65-1.75-1.93-1.75-1.45,0-2.18.69-2.18,2.07a2.25,2.25,0,0,0,2.53,2.36,4.64,4.64,0,0,0,1.42-.24l.07,0v-.57l-.12,0a2.53,2.53,0,0,1-.9.15A1.79,1.79,0,0,1,28,31h2.85Zm-2-1.29c.62,0,.78.45.8.86H28A.87.87,0,0,1,28.9,29.67Z"/><path class="cls-1" d="M41.47,29.21a1.85,1.85,0,0,0-1.6.93v-2.9h-.09l-1.85.23v.32H38c.58,0,.7.15.7.71v5h1.16V31.37A1.34,1.34,0,0,1,41,30c.65,0,.65.48.65.91v2.66h1.16V30.75C42.78,30.29,42.78,29.21,41.47,29.21Z"/><path class="cls-1" d="M48,31c0-1.16-.65-1.75-1.92-1.75-1.45,0-2.18.69-2.18,2.07a2.25,2.25,0,0,0,2.53,2.36,4.71,4.71,0,0,0,1.42-.24l.06,0v-.57l-.11,0a2.55,2.55,0,0,1-.91.15,1.79,1.79,0,0,1-1.73-2H48Zm-2-1.29c.63,0,.79.45.81.86H45.16A.88.88,0,0,1,46,29.67Z"/><path class="cls-1" d="M35,28v1.32h-.78v.51H35v2.61c0,1.12.72,1.21,1.6,1.21a4.24,4.24,0,0,0,.68-.07h.07V33l-.1,0a1.83,1.83,0,0,1-.35,0c-.7,0-.74-.21-.74-.8V29.82h1.31v-.51H36.11V28Z"/><path class="cls-1" d="M57.83,27.48H56.67v4.6l-3-4.6H51v.35l.23,0c.71.12.76.13.76.82v4.85h1.25V28.72l3.19,4.82h1.54V27.48Z"/><path class="cls-1" d="M63.12,31c0-1.17-.65-1.76-1.93-1.76-1.45,0-2.18.7-2.18,2.07a2.25,2.25,0,0,0,2.53,2.36A4.34,4.34,0,0,0,63,33.4l.07,0v-.56l-.11,0A2.89,2.89,0,0,1,62,33a1.77,1.77,0,0,1-1.73-1.95h2.84Zm-2-1.3c.62,0,.78.45.8.86H60.28A.88.88,0,0,1,61.15,29.67Z"/><path class="cls-1" d="M69.53,28v1.32h-.78v.51h.78v2.61c0,1.12.72,1.21,1.6,1.21a4.13,4.13,0,0,0,.68-.07h.07V33l-.1,0a1.83,1.83,0,0,1-.35,0c-.7,0-.74-.21-.74-.8V29.82H72v-.51H70.69V28Z"/><path class="cls-1" d="M67.19,30.69l1.19-1.39H67.16L66,30.61l-1-1.3H63.24v.33h.07a1.18,1.18,0,0,1,1.12.64l.73,1L64,32.63H65.2l.53-.61,1.15,1.52h1.38l-2.19-2.85Z"/><polygon class="cls-2" points="69.52 27.99 68.29 27.99 69.77 26.27 71 26.27 69.52 27.99"/></svg>